PathFileType	4	(X/Y/Z)	 s10c0403.trc
DataRate	CameraRate	NumFrames	NumMarkers	Units	OrigDataRate	OrigDataStartFrame	OrigNumFrames
200	200	4	49	mm	200	1751	2000
Frame#	Time	racr			lacr			c7			jug			rlel			rdr			llel			ldr			s2			lic			ric			lasi			rasi			rpsi			lpsi			rgt			lgt			rth1			rth2			rth3			rth4			rlfc			rmfc			rsh1			rsh2			rsh3			rsh4			rlmal			rmmal			rcal			rtoe			rmt5			lth1			lth2			lth4			lth3			llfc			lmfc			llmal			lcal			lmt5			lsh1			lsh2			lsh3			lsh4			ltoe			SBIKE			LBIKE			RBIKE			
		X1	Y1	Z1	X2	Y2	Z2	X3	Y3	Z3	X4	Y4	Z4	X5	Y5	Z5	X6	Y6	Z6	X7	Y7	Z7	X8	Y8	Z8	X9	Y9	Z9	X10	Y10	Z10	X11	Y11	Z11	X12	Y12	Z12	X13	Y13	Z13	X14	Y14	Z14	X15	Y15	Z15	X16	Y16	Z16	X17	Y17	Z17	X18	Y18	Z18	X19	Y19	Z19	X20	Y20	Z20	X21	Y21	Z21	X22	Y22	Z22	X23	Y23	Z23	X24	Y24	Z24	X25	Y25	Z25	X26	Y26	Z26	X27	Y27	Z27	X28	Y28	Z28	X29	Y29	Z29	X30	Y30	Z30	X31	Y31	Z31	X32	Y32	Z32	X33	Y33	Z33	X34	Y34	Z34	X35	Y35	Z35	X36	Y36	Z36	X37	Y37	Z37	X38	Y38	Z38	X39	Y39	Z39	X40	Y40	Z40	X41	Y41	Z41	X42	Y42	Z42	X43	Y43	Z43	X44	Y44	Z44	X45	Y45	Z45	X46	Y46	Z46	X47	Y47	Z47	X48	Y48	Z48	X49	Y49	Z49	
1751	8.7550	592.282240	1367.352691	-62.442385	610.717209	1367.497574	-345.739519	579.947810	1374.500877	-204.873906	586.231265	1231.023043	-201.569865	541.269015	1106.460611	44.858300	620.928230	905.138670	-1.768582	573.752825	1102.067182	-474.662208	646.106051	906.553893	-397.379480	62.930401	1144.417765	-167.750127	213.735753	1156.660498	-325.241992	266.097058	1123.328870	-63.829553	235.890390	1067.768210	-319.969639	248.433015	1041.060052	-74.428977	123.544337	1188.834681	-111.085492	112.271890	1207.476554	-221.699973	137.502302	1022.089932	0.900967	109.239352	1047.377343	-381.958086	158.518682	883.678871	16.867889	192.179919	803.514427	-0.980143	179.618361	719.436275	-14.418724	228.583038	810.885511	-10.157156	204.554005	617.529725	-34.395356	186.625339	613.609438	-150.325877	124.461951	531.939259	-9.383451	109.355775	445.438416	-23.777319	54.707352	379.505988	-32.296647	139.605818	435.371828	-45.576226	12.236218	291.164615	-48.828059	39.583523	292.745797	-127.561333	-37.188077	299.312085	-99.983802	162.016912	160.453876	-94.267890	76.637497	177.912791	-34.535399	221.089021	978.561611	-401.249789	306.908951	973.064276	-389.862182	317.346010	1004.724857	-374.919007	381.202970	924.292363	-393.106903	482.343637	885.614805	-375.827115	495.715081	869.146762	-248.343584	227.558918	592.632912	-371.624188	161.971787	583.208421	-330.047336	295.008817	463.531228	-384.063976	397.863575	798.680860	-401.656730	365.865370	717.184947	-391.527104	293.779613	664.170265	-387.370546	389.876578	701.317805	-366.423332	371.705049	457.714002	-326.899351	-204.375527	831.867534	-224.156958	-78.155281	81.875280	-423.643835	-102.621604	80.635369	-24.336288	
1752	8.7600	591.232922	1367.191620	-62.531303	611.437581	1366.768426	-346.399642	580.274992	1374.200841	-205.272876	585.966616	1230.933776	-201.716161	540.602512	1106.649141	44.924934	620.876826	905.333742	-1.755750	573.132567	1101.567095	-475.548879	645.997570	906.488316	-397.345821	61.552735	1148.075327	-170.275388	213.425523	1158.517875	-326.417504	262.996128	1126.264064	-65.554419	234.694566	1069.525896	-320.786647	246.892492	1044.862002	-74.675358	122.343229	1192.112431	-113.501210	111.665285	1210.410129	-224.107770	135.441485	1026.400531	-0.138384	109.142831	1049.544135	-382.965814	158.549472	886.909579	16.587550	193.932137	807.433832	-0.898339	183.563926	723.058894	-13.683656	230.197941	815.537034	-9.915063	209.291325	621.412578	-32.642909	192.450415	617.374926	-148.514884	126.995535	537.265804	-8.438543	110.085623	451.268675	-23.200203	54.059492	386.521249	-32.303461	140.327999	440.345858	-44.788926	9.555437	299.835512	-49.222330	37.163520	300.560000	-127.772781	-39.231717	309.953222	-100.453631	154.122670	163.121310	-94.686727	69.607590	184.158593	-35.082986	219.665693	978.979595	-401.595532	305.347424	972.501430	-389.731424	316.130813	1004.088414	-375.078008	379.075707	922.730268	-392.190465	480.142198	883.153927	-374.385081	492.503578	868.533544	-245.919149	231.564198	584.316298	-371.311657	165.970758	573.393022	-330.394355	302.793238	457.341631	-383.527418	398.403022	794.192497	-400.651398	367.705943	712.044805	-390.336889	296.610921	657.904618	-387.200798	391.697451	696.925242	-364.834324	379.508790	454.402637	-326.572796	-204.380255	831.881053	-224.223213	-78.136580	81.918558	-423.669267	-102.623711	80.648556	-24.352163	
1753	8.7650	590.436375	1366.926086	-62.568462	612.259761	1365.961886	-346.863244	580.608860	1374.055732	-205.612732	585.606194	1230.867309	-201.838927	540.226770	1106.743739	44.884301	620.889079	905.466664	-1.752920	572.603711	1101.185022	-476.163394	645.923256	906.456438	-397.349188	60.113413	1150.986670	-172.791600	212.920317	1160.074018	-327.563160	260.952162	1129.235865	-66.640756	233.330507	1071.038107	-321.663500	245.366974	1048.735633	-74.784961	121.007226	1195.636449	-116.217567	110.966657	1213.225231	-226.533915	133.198423	1030.712557	-1.156775	109.078707	1051.619042	-384.114313	158.558185	890.248678	16.281844	195.908633	811.558784	-0.840282	187.639073	726.862763	-12.868862	232.105626	820.440926	-9.680541	214.774177	625.396811	-30.806275	198.992795	621.180511	-146.709279	130.366660	542.817338	-7.356575	111.606216	457.203086	-22.457147	54.117971	393.742479	-32.067741	141.728737	445.653310	-43.841938	7.575212	308.960781	-49.264947	35.449903	308.994422	-127.772295	-40.206472	321.371177	-100.650232	146.414275	166.130845	-95.037888	62.997467	190.812205	-35.467743	218.090441	978.980374	-401.938547	303.680971	971.424163	-389.549812	314.803422	1003.143725	-375.384570	376.719252	920.590062	-391.193284	477.963575	879.635338	-372.568249	487.456900	866.497246	-245.220378	235.525775	575.944152	-372.015081	169.768061	562.986396	-330.850934	310.178668	450.805128	-383.280507	398.457913	788.974902	-399.657541	369.049570	706.426432	-389.275642	299.073445	650.909703	-386.931191	393.014139	691.877524	-363.317197	386.903252	450.372388	-326.362059	-204.373498	831.903399	-224.249006	-78.150812	81.946089	-423.716522	-102.635050	80.659530	-24.387091	
1754	8.7700	589.676625	1366.571840	-62.543493	613.063529	1365.235854	-347.147664	580.952287	1373.858675	-205.750507	585.145761	1230.787183	-201.938305	540.391712	1106.863619	44.808515	620.968356	905.574361	-1.766905	572.024737	1100.795079	-476.727291	645.862447	906.517745	-397.300988	57.979739	1153.827362	-173.515860	212.702908	1161.741138	-329.369901	258.733875	1132.350289	-67.631034	231.779527	1072.353155	-322.555054	243.845869	1052.231105	-74.697885	119.638393	1198.979054	-119.171072	111.186249	1215.886849	-229.427108	130.794958	1035.114352	-2.121047	108.928803	1053.510868	-385.466946	158.619269	893.511013	15.894328	198.143568	815.772908	-0.721516	192.265720	730.838106	-11.878893	233.949609	825.651342	-9.517855	220.897669	629.505691	-28.993406	206.402274	624.850308	-144.800824	134.377202	548.481727	-6.174314	113.752016	463.408758	-21.568918	54.800892	401.258013	-31.644118	143.729689	451.226353	-42.815399	6.193347	318.362735	-49.150633	34.321884	317.420255	-127.584542	-40.856098	333.007609	-100.898758	138.950261	169.583911	-95.408015	56.733708	197.969844	-35.913906	216.341132	978.615312	-402.319003	301.964763	969.671772	-389.424074	313.306345	1001.623761	-375.660740	374.032562	917.997008	-390.295688	475.576496	875.472151	-370.705461	482.707942	863.920791	-244.159244	239.061390	566.284067	-371.785170	173.733553	551.603897	-330.912975	317.187517	443.611735	-382.932989	397.923331	783.163716	-398.675307	369.903204	700.017759	-388.003193	301.111534	643.199398	-386.726153	393.823593	685.990914	-361.873934	393.935468	445.554339	-326.068062	-204.378945	831.939779	-224.302237	-78.158697	82.012844	-423.735468	-102.629312	80.733328	-24.378664	
